<?xml version="1.0" encoding="UTF-8"?>
<svg xmlns="http://www.w3.org/2000/svg" width="2172" height="724" viewBox="0 0 2172 724">
<g fill="#f6e20a" fill-rule="evenodd">
<path d="M 1206 629 L 1199 629 L 1192 635 L 1189 634 L 1189 631 L 1187 629 L 1178 629 L 1173 632 L 1176 638 L 1176 673 L 1186 674 L 1191 671 L 1189 666 L 1190 642 L 1194 638 L 1204 640 L 1207 636 Z"/>
<path d="M 1228 629 L 1222 632 L 1214 642 L 1214 661 L 1221 670 L 1230 674 L 1242 674 L 1248 672 L 1253 668 L 1253 664 L 1247 666 L 1236 666 L 1229 660 L 1227 652 L 1252 650 L 1254 647 L 1253 638 L 1246 630 L 1238 628 Z"/>
<path d="M 1232 634 L 1237 634 L 1241 637 L 1242 644 L 1240 647 L 1229 648 L 1227 646 L 1227 641 Z"/>
<path d="M 1129 631 L 1126 634 L 1126 639 L 1130 639 L 1135 635 L 1143 635 L 1147 639 L 1147 646 L 1143 648 L 1134 648 L 1126 651 L 1120 658 L 1120 665 L 1122 669 L 1129 674 L 1138 674 L 1144 670 L 1148 670 L 1153 674 L 1163 672 L 1165 668 L 1161 666 L 1161 641 L 1158 634 L 1153 630 L 1145 628 L 1139 628 Z"/>
<path d="M 1146 651 L 1147 664 L 1143 667 L 1138 667 L 1134 663 L 1134 656 L 1138 652 Z"/>
<path d="M 1091 629 L 1084 632 L 1078 637 L 1074 645 L 1073 656 L 1076 664 L 1083 671 L 1091 674 L 1103 674 L 1110 671 L 1113 668 L 1113 665 L 1108 665 L 1104 667 L 1094 665 L 1088 657 L 1087 646 L 1089 640 L 1094 635 L 1100 634 L 1107 638 L 1110 638 L 1111 632 L 1100 628 Z"/>
<path d="M 1011 630 L 1002 637 L 998 646 L 998 657 L 1002 666 L 1006 670 L 1015 674 L 1028 674 L 1035 671 L 1038 668 L 1038 664 L 1030 667 L 1023 667 L 1015 661 L 1012 652 L 1037 650 L 1040 646 L 1038 636 L 1031 630 L 1024 628 Z"/>
<path d="M 1017 634 L 1023 634 L 1026 637 L 1027 645 L 1025 647 L 1014 648 L 1012 646 L 1013 639 Z"/>
<path d="M 903 616 L 903 619 L 910 630 L 924 670 L 928 674 L 933 674 L 936 672 L 940 657 L 948 639 L 951 639 L 953 642 L 964 672 L 967 674 L 973 673 L 985 640 L 995 620 L 994 615 L 982 615 L 980 617 L 983 623 L 983 628 L 975 652 L 971 653 L 960 626 L 960 617 L 954 614 L 944 616 L 942 618 L 942 621 L 945 624 L 945 630 L 936 653 L 933 654 L 925 633 L 922 618 L 919 615 L 915 614 Z"/>
<path d="M 817 574 L 812 567 L 806 564 L 793 563 L 758 574 L 719 591 L 709 594 L 706 596 L 708 611 L 704 622 L 698 629 L 687 635 L 599 636 L 595 633 L 595 628 L 599 625 L 685 625 L 695 617 L 697 613 L 697 601 L 693 594 L 688 589 L 682 586 L 623 585 L 559 569 L 524 569 L 503 577 L 476 597 L 435 623 L 410 635 L 370 649 L 366 653 L 366 660 L 382 677 L 399 690 L 425 705 L 447 713 L 457 712 L 477 700 L 502 688 L 533 679 L 573 675 L 671 674 L 681 670 L 717 646 L 810 591 L 816 585 Z"/>
<path d="M 688 535 L 691 547 L 697 553 L 703 556 L 718 556 L 727 552 L 727 547 L 724 539 L 714 529 L 709 527 L 698 527 Z"/>
<path d="M 604 499 L 596 496 L 589 496 L 580 499 L 570 508 L 567 514 L 567 518 L 572 522 L 584 527 L 593 527 L 599 525 L 608 517 L 611 509 L 611 506 Z"/>
<path d="M 705 493 L 697 501 L 695 509 L 698 515 L 706 521 L 721 521 L 730 516 L 739 505 L 739 503 L 727 493 L 721 491 L 712 491 Z"/>
<path d="M 1373 484 L 1369 488 L 1367 494 L 1367 545 L 1372 560 L 1378 566 L 1384 569 L 1399 570 L 1406 567 L 1413 560 L 1416 552 L 1419 551 L 1421 562 L 1425 567 L 1432 570 L 1439 570 L 1447 567 L 1452 559 L 1452 492 L 1449 487 L 1441 482 L 1431 482 L 1426 484 L 1422 488 L 1420 493 L 1420 533 L 1415 540 L 1408 542 L 1403 540 L 1399 534 L 1399 493 L 1397 488 L 1388 482 L 1378 482 Z"/>
<path d="M 1647 485 L 1641 482 L 1631 481 L 1622 485 L 1617 492 L 1616 508 L 1624 524 L 1624 532 L 1622 537 L 1609 531 L 1604 526 L 1593 492 L 1587 484 L 1583 482 L 1572 482 L 1565 486 L 1562 490 L 1561 503 L 1581 551 L 1588 559 L 1599 564 L 1611 564 L 1610 575 L 1605 581 L 1600 581 L 1596 577 L 1593 569 L 1587 565 L 1575 564 L 1569 566 L 1562 575 L 1562 585 L 1567 595 L 1573 600 L 1588 605 L 1601 605 L 1611 602 L 1617 598 L 1626 587 L 1630 579 L 1652 509 L 1653 495 L 1652 491 Z"/>
<path d="M 1273 490 L 1269 496 L 1269 506 L 1276 514 L 1284 516 L 1298 511 L 1312 511 L 1316 513 L 1319 517 L 1319 522 L 1316 523 L 1307 519 L 1293 518 L 1282 520 L 1273 524 L 1267 530 L 1263 540 L 1263 550 L 1267 560 L 1277 568 L 1285 570 L 1295 570 L 1306 566 L 1312 560 L 1315 553 L 1318 552 L 1321 564 L 1325 568 L 1330 570 L 1339 570 L 1345 568 L 1350 563 L 1352 548 L 1350 540 L 1350 513 L 1348 504 L 1344 496 L 1336 488 L 1325 483 L 1316 481 L 1292 482 L 1282 485 Z"/>
<path d="M 1292 532 L 1298 528 L 1311 528 L 1316 530 L 1319 533 L 1319 536 L 1310 541 L 1297 541 L 1292 537 Z"/>
<path d="M 1182 489 L 1171 501 L 1165 517 L 1166 539 L 1174 555 L 1183 563 L 1202 570 L 1227 569 L 1237 566 L 1246 561 L 1251 552 L 1251 545 L 1249 540 L 1243 534 L 1234 532 L 1220 537 L 1205 537 L 1198 534 L 1194 529 L 1195 526 L 1238 526 L 1246 523 L 1251 516 L 1251 506 L 1246 496 L 1236 487 L 1218 481 L 1197 482 Z"/>
<path d="M 1194 515 L 1202 508 L 1214 507 L 1219 509 L 1224 514 L 1224 517 L 1195 518 Z"/>
<path d="M 1494 457 L 1488 461 L 1486 465 L 1485 481 L 1474 482 L 1468 487 L 1467 501 L 1474 508 L 1485 509 L 1485 541 L 1487 552 L 1491 559 L 1496 564 L 1506 569 L 1523 570 L 1533 568 L 1541 564 L 1548 556 L 1550 549 L 1549 542 L 1546 537 L 1540 533 L 1531 533 L 1524 538 L 1519 539 L 1516 536 L 1516 509 L 1536 508 L 1540 506 L 1545 500 L 1545 490 L 1543 486 L 1537 482 L 1517 482 L 1515 463 L 1508 457 Z"/>
<path d="M 756 459 L 743 452 L 727 452 L 720 456 L 715 462 L 713 474 L 718 479 L 725 482 L 739 481 L 747 476 L 752 470 Z"/>
<path d="M 923 453 L 916 460 L 913 466 L 912 483 L 916 493 L 924 501 L 924 503 L 914 509 L 907 516 L 902 528 L 902 543 L 904 551 L 907 556 L 912 561 L 923 567 L 936 570 L 959 569 L 971 565 L 979 560 L 981 560 L 991 568 L 997 570 L 1005 570 L 1012 567 L 1017 560 L 1018 550 L 1013 542 L 1004 538 L 1004 534 L 1011 525 L 1014 517 L 1013 502 L 1007 496 L 1000 494 L 989 497 L 983 505 L 982 520 L 979 520 L 964 508 L 964 505 L 966 503 L 978 497 L 987 486 L 989 471 L 984 459 L 977 452 L 963 446 L 940 446 L 930 449 Z"/>
<path d="M 930 525 L 937 517 L 941 516 L 961 534 L 961 537 L 954 540 L 937 539 L 931 534 Z"/>
<path d="M 958 474 L 963 480 L 962 487 L 955 493 L 950 495 L 946 494 L 940 487 L 940 478 L 948 473 Z"/>
<path d="M 1071 443 L 1062 450 L 1060 456 L 1061 560 L 1067 568 L 1073 570 L 1080 570 L 1089 565 L 1092 554 L 1095 553 L 1101 563 L 1108 568 L 1115 570 L 1131 568 L 1141 561 L 1149 546 L 1152 519 L 1148 501 L 1143 492 L 1137 486 L 1129 482 L 1116 481 L 1106 485 L 1100 491 L 1096 501 L 1093 502 L 1091 450 L 1084 444 Z"/>
<path d="M 1094 516 L 1102 511 L 1113 511 L 1117 513 L 1122 519 L 1122 530 L 1118 535 L 1114 537 L 1099 537 L 1092 530 L 1092 519 Z"/>
<path d="M 1589 320 L 1584 325 L 1582 331 L 1582 395 L 1584 401 L 1588 405 L 1593 407 L 1602 407 L 1610 403 L 1613 397 L 1613 356 L 1615 351 L 1619 347 L 1625 346 L 1633 351 L 1635 357 L 1634 385 L 1636 400 L 1639 404 L 1644 407 L 1655 407 L 1660 405 L 1663 402 L 1666 394 L 1666 347 L 1662 331 L 1658 325 L 1653 321 L 1645 318 L 1631 319 L 1622 326 L 1617 339 L 1614 340 L 1613 327 L 1607 320 L 1602 318 L 1594 318 Z"/>
<path d="M 1512 319 L 1496 327 L 1485 340 L 1480 358 L 1480 371 L 1482 380 L 1489 393 L 1495 399 L 1506 405 L 1514 407 L 1535 407 L 1545 404 L 1558 395 L 1566 382 L 1569 369 L 1569 356 L 1566 344 L 1561 334 L 1548 323 L 1534 318 Z"/>
<path d="M 1505 358 L 1512 351 L 1520 349 L 1531 349 L 1539 351 L 1545 357 L 1545 364 L 1540 370 L 1536 372 L 1519 373 L 1511 371 L 1506 366 Z"/>
<path d="M 1447 318 L 1440 321 L 1435 328 L 1435 396 L 1437 401 L 1441 405 L 1446 407 L 1455 407 L 1462 404 L 1466 397 L 1467 336 L 1466 327 L 1460 320 L 1455 318 Z"/>
<path d="M 1305 318 L 1300 320 L 1295 325 L 1293 331 L 1293 395 L 1298 404 L 1304 407 L 1315 407 L 1323 401 L 1325 396 L 1325 329 L 1323 324 L 1319 320 L 1314 318 Z"/>
<path d="M 1272 320 L 1267 318 L 1255 318 L 1251 320 L 1243 329 L 1240 337 L 1237 336 L 1237 330 L 1234 323 L 1228 319 L 1217 318 L 1208 323 L 1205 329 L 1205 397 L 1211 405 L 1216 407 L 1226 407 L 1232 404 L 1236 399 L 1237 352 L 1241 346 L 1247 345 L 1255 353 L 1262 355 L 1271 353 L 1277 347 L 1280 339 L 1280 331 L 1278 326 Z"/>
<path d="M 1011 321 L 1008 324 L 1005 333 L 1005 377 L 1007 388 L 1011 397 L 1020 405 L 1027 407 L 1038 407 L 1047 403 L 1052 398 L 1056 389 L 1059 388 L 1062 400 L 1065 404 L 1072 407 L 1081 407 L 1086 405 L 1090 401 L 1092 396 L 1092 329 L 1090 325 L 1085 320 L 1079 318 L 1068 319 L 1063 323 L 1060 329 L 1059 372 L 1055 377 L 1046 379 L 1042 377 L 1038 371 L 1037 326 L 1034 322 L 1027 318 L 1018 318 Z"/>
<path d="M 908 321 L 904 325 L 902 331 L 902 396 L 904 401 L 908 405 L 913 407 L 924 407 L 931 403 L 934 396 L 934 355 L 939 348 L 949 347 L 956 354 L 956 395 L 959 402 L 967 407 L 978 407 L 984 404 L 989 394 L 989 358 L 987 339 L 982 328 L 975 321 L 968 318 L 955 318 L 948 321 L 942 327 L 938 338 L 935 339 L 934 329 L 929 321 L 922 318 L 915 318 Z"/>
<path d="M 677 316 L 676 328 L 678 330 L 684 330 L 685 318 L 683 316 Z"/>
<path d="M 749 333 L 753 343 L 758 348 L 771 354 L 784 354 L 794 350 L 801 345 L 809 337 L 811 331 L 801 321 L 793 316 L 783 313 L 774 313 L 765 316 L 757 321 L 753 325 Z"/>
<path d="M 1367 293 L 1359 299 L 1358 317 L 1348 318 L 1341 322 L 1339 327 L 1339 336 L 1341 340 L 1346 344 L 1358 345 L 1358 382 L 1363 396 L 1369 402 L 1381 407 L 1400 407 L 1407 405 L 1414 401 L 1420 394 L 1422 388 L 1421 379 L 1417 373 L 1411 370 L 1405 370 L 1395 376 L 1391 376 L 1388 373 L 1388 350 L 1390 344 L 1410 344 L 1415 341 L 1418 336 L 1417 325 L 1412 320 L 1407 318 L 1390 318 L 1388 301 L 1385 296 L 1376 292 Z"/>
<path d="M 1135 293 L 1131 295 L 1127 300 L 1126 317 L 1115 318 L 1108 324 L 1107 337 L 1113 344 L 1126 345 L 1126 381 L 1131 395 L 1141 404 L 1150 407 L 1168 407 L 1175 405 L 1183 401 L 1188 396 L 1191 388 L 1191 383 L 1189 377 L 1184 372 L 1179 370 L 1171 371 L 1163 376 L 1157 373 L 1157 346 L 1159 344 L 1180 343 L 1186 336 L 1186 327 L 1184 323 L 1179 319 L 1158 318 L 1156 299 L 1151 294 L 1146 292 Z"/>
<path d="M 1443 282 L 1438 286 L 1435 291 L 1436 304 L 1442 310 L 1448 312 L 1459 310 L 1464 306 L 1467 300 L 1467 291 L 1465 287 L 1457 281 Z"/>
<path d="M 1307 280 L 1297 285 L 1293 293 L 1293 300 L 1295 305 L 1299 309 L 1306 312 L 1311 312 L 1319 309 L 1323 305 L 1325 301 L 1325 291 L 1322 285 L 1318 282 Z"/>
<path d="M 524 264 L 517 264 L 510 273 L 511 286 L 513 290 L 517 292 L 526 289 L 531 281 L 529 270 Z"/>
<path d="M 612 265 L 601 259 L 588 259 L 578 267 L 576 279 L 579 282 L 587 285 L 597 284 L 609 275 L 612 269 Z"/>
<path d="M 696 212 L 691 214 L 683 222 L 676 234 L 675 239 L 676 252 L 679 258 L 690 268 L 697 266 L 705 261 L 710 254 L 712 248 L 711 231 L 706 222 Z"/>
<path d="M 545 211 L 545 216 L 550 221 L 559 221 L 564 217 L 563 212 L 557 207 L 552 207 Z"/>
<path d="M 507 193 L 508 199 L 501 206 L 498 213 L 497 221 L 500 230 L 506 238 L 512 239 L 517 237 L 522 232 L 524 227 L 524 219 L 520 209 L 515 202 L 509 197 L 509 193 Z"/>
<path d="M 1355 160 L 1349 167 L 1348 171 L 1349 178 L 1355 185 L 1360 187 L 1367 187 L 1379 182 L 1389 181 L 1395 183 L 1398 186 L 1399 193 L 1396 194 L 1382 190 L 1370 190 L 1358 193 L 1353 196 L 1347 202 L 1344 209 L 1344 225 L 1348 233 L 1360 241 L 1379 242 L 1386 239 L 1393 232 L 1396 225 L 1399 224 L 1401 235 L 1405 240 L 1410 242 L 1421 242 L 1426 240 L 1430 236 L 1432 231 L 1431 185 L 1429 175 L 1425 167 L 1417 159 L 1407 154 L 1399 152 L 1377 152 L 1365 155 Z"/>
<path d="M 1372 205 L 1377 200 L 1389 199 L 1397 202 L 1399 204 L 1399 208 L 1394 212 L 1379 213 L 1372 208 Z"/>
<path d="M 1017 152 L 1012 154 L 1008 158 L 1005 166 L 1005 230 L 1008 237 L 1011 240 L 1016 242 L 1027 242 L 1030 241 L 1036 235 L 1037 232 L 1037 162 L 1035 158 L 1029 153 Z"/>
<path d="M 1166 157 L 1158 164 L 1155 169 L 1154 179 L 1157 187 L 1163 193 L 1172 197 L 1205 201 L 1209 204 L 1209 207 L 1205 210 L 1193 211 L 1181 208 L 1173 204 L 1163 204 L 1154 211 L 1152 216 L 1152 225 L 1156 232 L 1167 239 L 1187 243 L 1208 242 L 1217 240 L 1227 235 L 1234 227 L 1237 218 L 1236 207 L 1233 201 L 1229 197 L 1217 192 L 1187 188 L 1183 185 L 1183 182 L 1188 178 L 1202 178 L 1216 184 L 1227 183 L 1232 179 L 1234 175 L 1233 163 L 1221 155 L 1200 151 L 1181 152 Z"/>
<path d="M 1073 157 L 1061 167 L 1056 175 L 1052 186 L 1051 205 L 1053 214 L 1059 226 L 1071 237 L 1085 242 L 1111 242 L 1128 236 L 1135 230 L 1138 223 L 1137 215 L 1131 207 L 1124 204 L 1119 204 L 1104 210 L 1092 210 L 1085 207 L 1081 203 L 1080 199 L 1127 198 L 1133 196 L 1137 192 L 1139 180 L 1136 171 L 1132 165 L 1121 156 L 1109 152 L 1092 151 Z"/>
<path d="M 1081 186 L 1084 182 L 1090 179 L 1103 179 L 1111 185 L 1112 189 L 1082 190 Z"/>
<path d="M 905 155 L 900 164 L 900 172 L 912 216 L 918 230 L 928 239 L 937 242 L 953 242 L 967 237 L 972 232 L 978 221 L 991 175 L 991 165 L 988 158 L 980 152 L 969 151 L 963 153 L 957 159 L 954 165 L 953 179 L 960 193 L 961 199 L 959 204 L 955 208 L 950 209 L 943 203 L 939 195 L 933 165 L 929 156 L 921 151 L 913 151 Z"/>
<path d="M 402 143 L 398 156 L 397 169 L 400 180 L 403 185 L 411 193 L 423 198 L 438 195 L 443 184 L 443 170 L 438 159 L 430 151 L 423 147 L 409 143 Z"/>
<path d="M 1275 127 L 1269 132 L 1267 136 L 1267 151 L 1257 152 L 1249 158 L 1249 174 L 1255 179 L 1267 180 L 1267 219 L 1272 231 L 1281 239 L 1289 242 L 1304 243 L 1314 241 L 1325 235 L 1331 226 L 1331 214 L 1327 208 L 1318 204 L 1312 205 L 1305 210 L 1299 209 L 1298 180 L 1317 179 L 1322 177 L 1327 169 L 1326 160 L 1322 154 L 1317 152 L 1299 152 L 1298 136 L 1293 129 L 1286 126 Z"/>
<path d="M 475 115 L 469 119 L 460 129 L 454 140 L 451 150 L 451 160 L 454 170 L 459 178 L 472 188 L 472 193 L 469 194 L 465 191 L 461 191 L 461 202 L 457 203 L 450 201 L 450 203 L 472 215 L 477 221 L 482 221 L 493 231 L 495 231 L 495 229 L 485 218 L 485 216 L 496 203 L 497 197 L 482 203 L 477 194 L 476 188 L 485 182 L 495 171 L 498 162 L 498 148 L 496 140 L 489 128 L 478 115 Z"/>
<path d="M 1018 114 L 1010 118 L 1007 122 L 1005 134 L 1007 139 L 1012 144 L 1017 146 L 1026 146 L 1036 139 L 1038 134 L 1038 127 L 1035 120 L 1030 116 L 1025 114 Z"/>
<path d="M 668 115 L 650 112 L 638 117 L 633 122 L 630 128 L 630 141 L 642 146 L 651 145 L 657 142 L 665 132 Z"/>
<path d="M 609 57 L 596 61 L 586 68 L 575 83 L 565 107 L 564 117 L 567 125 L 574 133 L 585 136 L 591 156 L 592 174 L 589 192 L 582 211 L 579 215 L 575 213 L 573 207 L 568 201 L 568 199 L 574 193 L 576 187 L 575 177 L 569 166 L 562 161 L 553 158 L 545 158 L 542 166 L 541 181 L 545 191 L 552 198 L 566 202 L 570 220 L 570 233 L 569 237 L 549 262 L 542 276 L 537 295 L 527 296 L 527 298 L 536 300 L 536 316 L 533 317 L 519 310 L 513 304 L 507 294 L 503 281 L 505 242 L 501 243 L 495 275 L 492 276 L 482 268 L 471 262 L 472 253 L 470 243 L 462 227 L 448 216 L 432 211 L 413 211 L 389 219 L 394 238 L 403 254 L 419 268 L 433 273 L 452 273 L 470 265 L 485 281 L 484 286 L 480 291 L 478 291 L 473 286 L 467 283 L 456 283 L 447 288 L 443 292 L 442 297 L 454 308 L 453 311 L 434 310 L 430 302 L 424 295 L 412 290 L 400 290 L 388 295 L 374 308 L 374 310 L 389 324 L 403 329 L 414 328 L 423 324 L 429 319 L 433 312 L 443 313 L 444 316 L 438 322 L 438 328 L 442 333 L 438 347 L 438 356 L 447 358 L 462 357 L 473 351 L 480 340 L 481 326 L 497 320 L 507 320 L 516 322 L 527 328 L 539 340 L 548 369 L 559 394 L 555 403 L 555 409 L 560 415 L 568 417 L 574 431 L 576 431 L 577 426 L 594 430 L 605 429 L 610 423 L 611 414 L 626 416 L 635 419 L 638 422 L 644 436 L 645 452 L 641 475 L 636 491 L 633 496 L 631 496 L 623 487 L 613 481 L 613 478 L 616 473 L 617 461 L 615 454 L 611 448 L 611 446 L 615 442 L 615 438 L 613 435 L 609 433 L 605 433 L 601 438 L 590 435 L 574 435 L 571 437 L 569 452 L 573 472 L 584 480 L 592 483 L 609 482 L 618 493 L 625 505 L 629 521 L 629 536 L 626 553 L 619 571 L 620 574 L 677 574 L 672 558 L 672 535 L 674 531 L 679 531 L 679 529 L 675 526 L 676 516 L 685 492 L 696 471 L 709 437 L 716 423 L 733 404 L 736 404 L 744 409 L 753 411 L 763 411 L 775 406 L 787 394 L 795 373 L 795 369 L 791 367 L 773 363 L 762 364 L 750 368 L 744 372 L 736 381 L 733 389 L 733 401 L 714 411 L 710 393 L 703 372 L 703 354 L 705 346 L 710 336 L 719 324 L 736 308 L 743 308 L 754 303 L 765 293 L 768 293 L 771 296 L 776 296 L 782 290 L 785 284 L 786 275 L 781 270 L 776 269 L 774 267 L 773 250 L 763 229 L 753 231 L 741 238 L 734 244 L 724 257 L 718 273 L 718 282 L 722 295 L 730 309 L 710 322 L 697 335 L 691 348 L 689 367 L 678 367 L 669 375 L 668 378 L 670 385 L 679 392 L 686 392 L 692 388 L 696 390 L 699 402 L 699 422 L 693 444 L 676 475 L 661 507 L 657 511 L 655 511 L 651 508 L 651 499 L 659 460 L 659 439 L 666 434 L 668 428 L 660 413 L 654 412 L 651 415 L 648 415 L 630 394 L 630 392 L 636 386 L 640 375 L 639 365 L 634 355 L 634 352 L 643 335 L 650 311 L 658 310 L 666 306 L 671 301 L 674 293 L 679 290 L 679 288 L 675 287 L 674 279 L 669 269 L 664 263 L 662 263 L 649 270 L 640 281 L 638 287 L 639 298 L 646 308 L 640 325 L 636 326 L 633 321 L 633 319 L 638 313 L 638 309 L 636 307 L 629 309 L 624 314 L 624 323 L 626 327 L 634 334 L 634 337 L 628 346 L 619 344 L 610 353 L 605 364 L 605 375 L 607 382 L 611 388 L 619 393 L 624 394 L 631 408 L 630 412 L 619 412 L 603 405 L 597 405 L 591 398 L 578 379 L 563 350 L 557 333 L 554 318 L 554 313 L 560 308 L 566 308 L 572 316 L 581 320 L 596 319 L 607 311 L 609 308 L 609 303 L 603 297 L 593 292 L 580 293 L 574 296 L 567 305 L 555 306 L 555 292 L 559 279 L 563 272 L 572 274 L 572 272 L 568 270 L 566 266 L 574 257 L 585 253 L 603 250 L 614 244 L 620 236 L 629 235 L 635 232 L 642 226 L 646 220 L 649 211 L 648 194 L 642 179 L 631 182 L 616 193 L 609 207 L 609 220 L 616 236 L 605 243 L 597 245 L 580 244 L 591 223 L 600 200 L 604 182 L 604 166 L 616 152 L 616 150 L 610 153 L 606 158 L 603 157 L 599 142 L 589 128 L 589 119 L 584 110 L 579 105 L 579 102 L 583 101 L 588 103 L 608 103 L 615 101 L 625 96 L 633 88 L 636 82 L 636 72 L 631 64 L 621 58 Z"/>
<path d="M 510 312 L 509 315 L 499 315 L 480 324 L 477 324 L 471 320 L 459 320 L 456 322 L 452 321 L 453 315 L 462 315 L 474 310 L 478 306 L 481 297 L 497 295 Z"/>
<path d="M 623 71 L 625 75 L 625 81 L 616 92 L 610 95 L 598 96 L 587 91 L 588 82 L 591 76 L 599 68 L 605 65 L 616 65 Z"/>
<path d="M 559 19 L 552 20 L 546 28 L 543 48 L 546 75 L 540 78 L 542 91 L 538 93 L 526 105 L 520 116 L 514 123 L 510 132 L 510 136 L 515 141 L 518 141 L 525 137 L 547 117 L 555 105 L 563 87 L 570 66 L 571 42 L 566 26 Z"/>
<path d="M 546 102 L 547 106 L 542 113 L 532 122 L 528 122 L 527 119 L 535 107 L 541 102 Z"/>
<path d="M 557 32 L 559 32 L 562 35 L 565 43 L 565 59 L 562 70 L 560 72 L 555 71 L 552 57 L 552 42 L 553 37 Z"/>
</g></svg>